<?xml version="1.0" standalone="no"?>
<!DOCTYPE svg PUBLIC "-//W3C//DTD SVG 20010904//EN"
 "http://www.w3.org/TR/2001/REC-SVG-20010904/DTD/svg10.dtd">
<svg version="1.0" xmlns="http://www.w3.org/2000/svg"
 width="1852.000000pt" height="681.000000pt" viewBox="0 0 1852.000000 681.000000"
 preserveAspectRatio="xMidYMid meet">

<g transform="translate(0.000000,681.000000) scale(0.100000,-0.100000)"
fill="#ff4d4f" stroke="none">
<path d="M2739 5295 c-501 -138 -1044 -979 -1193 -1846 -47 -270 -47 -609 -2
-825 112 -529 416 -901 856 -1048 361 -120 783 -92 1104 72 164 84 330 229
440 385 118 167 215 413 257 654 29 164 31 453 5 643 -114 833 -583 1664
-1081 1913 -38 19 -98 42 -131 51 -73 19 -190 19 -255 1z"/>
<path d="M5250 3410 l0 -1700 510 0 510 0 2 1369 3 1369 129 -482 c71 -264
192 -715 268 -1001 77 -286 184 -684 237 -885 l98 -365 586 -3 586 -2 15 52
c18 64 87 319 195 723 82 307 132 494 382 1427 l144 536 3 -1369 2 -1369 510
0 510 0 0 1700 0 1700 -900 0 -899 0 -15 -52 c-37 -132 -81 -296 -156 -578
-248 -927 -371 -1384 -375 -1388 -2 -2 -9 16 -15 39 -6 24 -44 168 -85 319
-41 151 -151 563 -245 915 -94 352 -177 664 -186 693 l-15 52 -899 0 -900 0 0
-1700z"/>
<path d="M10210 4650 l0 -460 478 -2 477 -3 3 -1237 2 -1238 510 0 510 0 0
1240 0 1240 475 0 475 0 0 460 0 460 -1465 0 -1465 0 0 -460z"/>
<path d="M15045 5099 c-1054 -79 -1710 -597 -1820 -1436 -37 -279 -11 -575 71
-821 73 -221 185 -403 349 -568 292 -294 659 -458 1206 -540 100 -15 231 -18
1037 -21 l922 -4 0 460 0 460 -892 4 c-885 3 -894 3 -993 26 -121 27 -253 76
-332 122 -87 51 -202 170 -246 256 -125 240 -110 582 34 798 85 127 216 218
399 279 216 71 197 70 1163 74 l867 3 0 460 0 459 -827 -1 c-456 -1 -877 -6
-938 -10z"/>
</g>
</svg>
