<?xml version="1.0" standalone="no"?>
<!DOCTYPE svg PUBLIC "-//W3C//DTD SVG 20010904//EN"
 "http://www.w3.org/TR/2001/REC-SVG-20010904/DTD/svg10.dtd">
<svg version="1.0" xmlns="http://www.w3.org/2000/svg"
 width="1852.000000pt" height="681.000000pt" viewBox="0 0 1852.000000 681.000000"
 preserveAspectRatio="xMidYMid meet">

<g transform="translate(0.000000,681.000000) scale(0.100000,-0.100000)"
fill="#000000" stroke="none">
<path d="M2735 5295 c-27 -8 -86 -32 -130 -54 -463 -229 -925 -1012 -1059
-1792 -47 -270 -47 -609 -2 -825 125 -594 484 -980 1012 -1089 331 -68 674
-27 948 113 409 209 667 642 717 1203 35 390 -70 923 -270 1373 -217 489 -525
868 -826 1019 -129 65 -273 84 -390 52z"/>
<path d="M5250 3410 l0 -1700 510 0 510 0 2 1370 3 1369 366 -1367 366 -1367
586 -3 586 -2 14 47 c8 27 173 643 368 1371 l354 1323 3 -1371 2 -1370 510 0
510 0 0 1700 0 1700 -900 0 -899 0 -15 -52 c-9 -29 -130 -482 -271 -1007 -140
-525 -257 -957 -260 -959 -2 -2 -8 13 -14 34 -45 172 -506 1891 -517 1932
l-15 52 -900 0 -899 0 0 -1700z"/>
<path d="M10210 4650 l0 -460 480 0 480 0 0 -1240 0 -1240 510 0 510 0 0 1240
0 1240 475 0 475 0 0 460 0 460 -1465 0 -1465 0 0 -460z"/>
<path d="M15045 5099 c-381 -29 -679 -105 -960 -244 -182 -91 -308 -179 -434
-306 -295 -295 -441 -671 -441 -1137 0 -225 24 -385 86 -570 127 -385 392
-684 775 -876 226 -113 470 -186 780 -232 100 -15 231 -18 1037 -21 l922 -4 0
460 0 460 -892 4 c-885 3 -894 3 -993 26 -121 27 -253 76 -332 122 -86 51
-202 170 -245 254 -73 141 -101 318 -79 490 52 387 325 602 831 655 54 5 445
10 903 10 l807 0 0 460 0 460 -827 -1 c-456 -1 -877 -6 -938 -10z"/>
</g>
</svg>
